<?xml version="1.0" encoding="utf-8"?>
<!-- Generator: Adobe Illustrator 25.3.1, SVG Export Plug-In . SVG Version: 6.00 Build 0)  -->
<svg version="1.1" id="Слой_1" xmlns="http://www.w3.org/2000/svg" xmlns:xlink="http://www.w3.org/1999/xlink" x="0px" y="0px"
	 viewBox="0 0 63 64" style="enable-background:new 0 0 63 64;" xml:space="preserve">
<style type="text/css">
	.st0{fill:#9FFDFF;}
</style>
<desc>Created with Sketch.</desc>
<g>
	<path class="st0" d="M29,31.6c0.4,1.2,0.7,2.4,0.7,3.6h-0.8v7h-1.7v1.5h1.7v1.6H28v4.7c0,1.1-0.1,2-0.3,2.8h0.8
		c-0.6,2.8-2,5-4.3,6.8c-2.3,1.8-4.9,2.7-7.8,2.7c-2.8,0-5.4-0.9-7.7-2.7c-2.3-1.8-3.8-4.1-4.3-6.8H3.6c-0.2-0.8-0.3-1.8-0.3-2.8
		v-3.6h9.2v3.9c0,0.9,0.3,1.6,0.9,2.2l0.2,0.2h0.8c0.6,0.4,1.3,0.7,2,0.7c0.7,0,1.4-0.2,2-0.7h-0.8l0.2-0.2c0.6-0.6,0.9-1.4,0.9-2.2
		v-5.1h0.8v-1.6H18v-1.5h1.7v-5.8c0-0.4-0.1-0.8-0.2-1.2h0.8c-0.2-0.4-0.4-0.7-0.7-0.9c-0.6-0.5-1.3-0.7-2.2-0.7
		c-0.9,0-1.7,0.2-2.2,0.6c-0.4,0.3-0.7,0.7-0.8,1.1h-0.8l-0.1,0.3H4.1v-0.3H5v-3.6H4.1v-4.2H3.3v-9.1h0.8v-6.5h1.7v-1.5H4.1v-7h23.5
		v7h1.7v1.5h-1.7V12H13.3v6.2h-0.8v7.3c1.5-0.6,2.9-0.9,4.3-0.9c1.3,0,2.7,0.3,4,0.8c1.3,0.5,2.5,1.2,3.4,1.9H25
		c1.3,1.1,2.4,2.5,3.2,4.2H29z"/>
	<path class="st0" d="M58.6,27.4v4.2h0.8v3.6h-0.8v7h-1.7v1.5h1.7v1.6h-0.8v4.7c0,0.7-0.1,1.6-0.3,2.8h0.8c-0.6,2.7-1.9,4.9-4.2,6.6
		c-2.2,1.8-4.7,2.7-7.5,2.7c-2.9,0-5.5-0.9-7.6-2.6s-3.5-4-4.2-6.7H34c-0.2-0.8-0.3-1.8-0.3-2.8v-4.7h0.8v-1.6h-1.7v-1.5h1.7v-7h0.8
		v-3.6h-0.8v-4.2h-0.8v-9.1h0.8v-3.6c0-1.1,0.1-2.1,0.3-3h1.7c0.1-0.2,0.1-0.4,0.2-0.6c0.1-0.2,0.2-0.5,0.3-0.9h-1.7
		c0.8-2.3,2.2-4.1,4.3-5.5c2.1-1.4,4.4-2.1,7-2.1c2.6,0,4.9,0.7,7,2.2c2,1.5,3.4,3.3,4.1,5.4h1.7c0.3,0.5,0.4,1,0.5,1.5h-1.7
		c0.3,1.1,0.4,2.1,0.4,3v3.6h-0.8v9.1H58.6z M50.2,35.2v-3.6h-0.8v-4.2h-0.8v-9.1h0.8v-3.6c0-0.8-0.3-1.4-0.8-2
		c-0.6-0.6-1.2-0.8-2-0.8c-0.9,0-1.6,0.3-2.1,0.9c-0.5,0.6-0.7,1.2-0.7,1.9v3.6h-0.8v9.1h0.8v4.2h0.8v3.6h-0.8v7h-1.7v1.5h1.7v1.6
		h-0.8v4.7c0,0.8,0.3,1.4,0.8,2c0.5,0.6,1.2,0.8,2,0.8c0.8,0,1.5-0.3,2-0.9c0.5-0.6,0.8-1.2,0.8-1.9v-4.7h0.8v-1.6h-1.7v-1.5h1.7v-7
		H50.2z"/>
</g>
</svg>
